<svg id="Layer_1" data-name="Layer 1" xmlns="http://www.w3.org/2000/svg" viewBox="0 0 1080 1080"><defs><style>.cls-1{fill:#730103;}</style></defs><path class="cls-1" d="M223.94,711.87c15.89,17.09,30.14,32.3,44.28,47.62,30.41,33,60.59,66.13,91.38,98.73,3.09,3.28,9.71,4.64,14.62,4.5,12.61-.35,25.21-3.31,37.76-3q137.36,3.35,274.68,7.68c31,1,57.51-7.55,82.13-27.67,72.83-59.52,147-117.44,220.51-176.09,15.05-12,18.26-29.36,9-45.57-10.25-17.89-32-27-50-19.92-7.59,3-14.53,7.86-21.39,12.44-40.93,27.36-81.71,54.93-122.63,82.31-4.83,3.22-10.3,8.08-15.28,7.86-6.71-.3-15.66-3.15-19-8.07-2.26-3.33,1.53-15,6-18q70.73-48.06,142.66-94.31c30.47-19.69,61.85-18.31,88.45,2.55,32.81,25.71,35.83,72.53,4.58,100.93-24.12,21.92-50.58,41.27-76.12,61.61q-78.9,62.88-157.93,125.61c-22.32,17.78-48,25.74-76.14,25.08-94-2.21-188-4.91-282-7.35-9.58-.25-19.17,0-30.36,0,13.6,22.09,12.68,25.41-4.91,41.55-32.69,30-65,60.35-97.49,90.59-13.42,12.51-19.24,12.52-31.6-.57Q155,914.61,55.16,808.79c-11.61-12.3-11.49-19.08,1-30.67Q106.44,731.28,157,684.71c18.09-16.62,21.85-16.3,39.54,1.36,1.33,1.33,2.89,2.43,5.31,4.45,24.11-20.73,49.74-39.63,71.61-62.17C342.09,557.58,466,559.43,530.84,597c21.77,12.61,44.58,17.92,69.84,16.79,29.19-1.29,58.49-.65,87.73-.11,27,.5,51.58,19.32,59.38,44.35,8.29,26.62,0,54.53-23.2,69.73-9.27,6.07-21.47,10.51-32.43,10.71-57,1-114.07.42-171.11.55-10.78,0-20.68-1.79-20.27-15,.39-12.64,10-14.84,20.88-14.81,53.63.13,107.25,0,160.88-.09,24.51,0,38.58-12,38.25-32.17-.33-20.6-15.6-33.74-39.37-33.87-27.3-.15-54.64-1.34-81.89-.16a152.66,152.66,0,0,1-82.8-19.47c-45.9-25.53-94.56-28.23-144.7-16.78a120.74,120.74,0,0,0-27.55,9.51C298.13,639.73,265.35,680,223.94,711.87Zm48.18,280.85,91.61-84.94L178.06,708C146,737.5,115.72,765.33,84.48,794.07Z"/><path class="cls-1" d="M685.3,49.76c147.36,1.07,266.23,124.35,264.78,274.6-1.4,144.39-125.56,269.11-266.81,268C536.05,591.18,415.53,468.8,416.05,321,416.58,172.19,539.17,48.7,685.3,49.76ZM446.79,322.69c-.51,130,106.84,239.63,235.38,240.3,126.4.65,237.68-111.53,238.48-240.43C921.47,192.13,815.18,81,689.07,80.34,554.24,79.68,447.32,186.63,446.79,322.69Z"/><path class="cls-1" d="M669.26,448c-11-3.59-20.93-6.18-30.33-10-18.95-7.7-30.28-22.49-35.56-41.83-2.73-10-.35-19.19,10.82-22.07,10.46-2.7,16,3.33,18.72,13.39,5.6,20.49,21.87,27.85,40.77,29.73,21.64,2.15,42.51-.3,54.89-21.72,10.06-17.39,3.62-38.89-15.29-48.5-10.68-5.42-22.78-8.16-34.39-11.62-10.24-3-20.95-4.66-31-8.22-29.67-10.53-46.65-35.76-44.43-64.77,2.36-30.88,23.15-55.72,53.67-61.06,11.22-2,13.5-6.51,12.5-16.19-.6-5.79-2-12.53.29-17.3,2.64-5.59,8.64-12.9,13.53-13.17,4.63-.25,14.42,8.46,13.84,11.82-4.38,25.14,7.87,35.06,30,42.58,18,6.15,28.71,22.51,33.18,41.83,2.41,10.4-1.05,17.5-11.18,20.19-9.8,2.61-16.39-2.32-18.31-11.84-3.57-17.75-15.1-27.17-31.79-29.74-20.55-3.17-41.51-3.83-56.9,13.85-16,18.37-9.56,44.83,13.26,54.3,9.77,4.05,20.64,5.39,30.91,8.33,12.13,3.48,24.65,6.19,36.1,11.28,28.85,12.84,42.37,36.49,40.41,67.85-1.58,25.31-21.47,50.1-49.34,57.08-13.77,3.45-16.15,9.83-15.55,22.18,1,20.83-3.55,28.67-14.67,27.56-17.63-1.76-13.58-15.81-14.09-26.95C669,459.19,669.26,453.42,669.26,448Z"/></svg>