<?xml version="1.0" encoding="utf-8"?>
<!-- Generator: Adobe Illustrator 26.0.1, SVG Export Plug-In . SVG Version: 6.00 Build 0)  -->
<svg version="1.1" id="Layer_1" xmlns="http://www.w3.org/2000/svg" xmlns:xlink="http://www.w3.org/1999/xlink" x="0px" y="0px"
	 viewBox="0 0 1080 1080" style="enable-background:new 0 0 1080 1080;" xml:space="preserve">
<g>
	<path d="M799,633.5c28.6-7.7,52.8-21.1,70.1-45.4c15.5-21.9,27.3-45.8,39.7-69.5c14.2-26.9,34.1-48.2,61.7-61.6
		c16.3-7.9,33.4-12,51.7-9c27.1,4.5,44,27.2,41.3,54.6c-1.7,17.1-8,32.7-14.2,48.4c-15.2,38.6-31.1,76.9-50.6,113.6
		c-13.2,24.9-27.1,49.6-47.5,69.4c-14.1,13.7-29.5,26.3-45,38.5c-35.6,27.9-72.7,53.8-112,76.2c-27.5,15.6-55.6,30.1-86.6,37.2
		c-12.2,2.8-25,4.4-37.5,4.4c-96.7-0.1-193.4-0.7-290-1c-4.3,0-8.7,0.9-13,1.8c-13.4,2.8-25.8-4.4-28.9-16.9
		c-3.2-12.6,4.2-25.9,17.1-29.2c7.5-1.9,15.4-3.3,23.1-3.3c96.4,0.2,192.8,0.5,289.2,1.3c25.4,0.2,48.5-7.1,71-17.5
		c39.1-18.1,75.3-41.3,109.9-66.7c21.4-15.7,42-32.5,62.7-49.2c13.8-11.1,23.5-25.7,32.7-40.7c20-32.4,35.1-67.2,49.9-102.2
		c7.5-17.8,14.5-35.8,21.4-53.9c1.6-4,2.4-8.5,2.8-12.8c0.5-4.9-1.5-6.9-6.5-6.9c-11.8,0-22.1,4.7-31.7,11
		c-15.6,10.3-25,25.5-33.6,41.6c-11.2,20.9-22.8,41.6-35.2,61.8c-19.8,32.2-48.8,53.1-84.1,65.4c-11.2,3.9-22.8,6.9-34.2,10.5
		c-1.7,0.5-3.5,1.8-4.5,3.3c-17.6,27.3-42.4,41.6-75.1,41.6c-59.1-0.1-118.3-0.2-177.4-0.4c-9.4,0-16.9-3.8-21.4-12.3
		c-4.4-8.3-3.8-16.5,1.5-24.2c4.9-7.1,12.1-9.9,20.6-9.9c50.3,0.1,100.7,0.1,151,0.1c9.8,0,19.6,0,29.4,0c20.9-0.1,37-16.4,37-37.6
		c0-21.1-16.1-37.8-36.8-37.8c-38.5-0.1-77.1-0.2-115.6-0.1c-27.1,0.1-50.7-8.9-70.6-27.3c-9.7-9-20.8-13.2-34-13
		c-30.4,0.3-60.8,0.1-91.3,0.1c-9.2,0-17.4,2.5-25.1,7.8c-37.8,25.7-75.8,51.2-113.8,76.8c-3.7,2.5-7.3,5-10.9,7.5
		c-11,7.6-25,5.3-32.4-5.5c-7.1-10.4-4.3-25.2,6.4-32.5c24.2-16.4,48.5-32.8,72.8-49.1c18.4-12.3,37.1-24.3,55.3-36.9
		c13.1-9.1,27.6-13.6,43.2-13.7c34-0.4,68-0.4,101.9,0c21.1,0.3,39.5,8.4,55.5,22c5.1,4.3,10.4,8.4,16,11.9
		c6.8,4.4,14.6,6.2,22.7,6.2c39.1,0,78.2,0,117.3-0.1c41.2,0,75.8,28.4,83.7,68.8C798.3,630.6,798.6,631.8,799,633.5z"/>
	<path d="M1037.4,173.4c-1,7.1-1.8,14.2-3.2,21.2c-7.8,39.6-22.1,76.9-39.4,113.2c-22.4,47-50.3,90.4-86.7,127.9
		c-26.6,27.4-56.7,49.9-92.2,64.7c-33.4,13.8-68.4,17.6-104.1,14.4c-13.2-1.2-26.3-4.1-39.5-6.2c-3.3-0.5-4.4-1.8-3.7-5.4
		c13.5-73.2,52.1-128.8,116.6-166.3c25.9-15.1,54-24.3,82.4-33.2c22.9-7.2,45.4-15.4,68.1-23.2c0.9-0.3,1.7-0.8,2.5-1.8
		c-3,0-6-0.1-9,0c-39.3,1.6-78.5,4.3-116.4,15.2c-74,21.3-127.8,66.9-160.6,136.6C645.8,444,642,458.8,637,473
		c-0.7,2.1-1.3,4.2-2.3,7.5c-2.7-3.4-4.9-5.9-6.8-8.6c-14.4-20.6-20.1-43.8-19.1-68.6c1.6-40.9,18.5-75.5,45.5-105.4
		c31.1-34.5,70.9-53.8,115-65.5c36-9.5,72.8-12.2,109.8-12.3c22.5,0,44.9-0.7,67.1-4.4c32.4-5.4,60.7-19.1,85.8-40
		c1.3-1,2.6-2,4-2.9C1036.4,172.9,1036.9,173.2,1037.4,173.4z"/>
	<path d="M572.6,370.6c-4-9-7.5-17.1-11.1-25.1c-21.3-46-48.3-88.2-85-123.6c-30.1-29.1-64-52.2-104.1-65.4c-1.2-0.4-2.4-0.7-3.7-1
		c-0.2-0.1-0.5,0.1-1.3,0.4c29.6,26.5,59.2,52.6,85,82.6c25.8,29.9,48.5,62,67.5,96.6c19.1,34.6,34.9,70.7,47.9,108.5
		c-1.4,0.4-2.4,0.9-3.5,1c-63.1,5.7-120.1-8.9-167.9-51.9c-27-24.2-47.1-53.8-62.6-86.4c-23.5-49.6-36.7-102-42-156.4
		c-2.1-22.3-2.4-44.8-3.5-67.2c-0.1-3,0.5-6,0.5-8.9c0-3.4,1.1-4.5,4.6-3.7c18.9,4.4,38.2,7.8,56.9,13
		c51.8,14.5,100.7,35.7,145.4,65.8c31.8,21.4,59.7,46.8,81.5,78.5c12.8,18.6,22.7,38.7,29.3,60.3c0.9,3.1,0.8,5.5-1,8.4
		c-14,22-24.1,45.7-31.4,70.6C573.8,367.6,573.3,368.6,572.6,370.6z"/>
	<path d="M272.9,921.7c-9.8-20.1-19.4-39.7-29.1-59.4c-29.3-59.7-58.6-119.3-87.8-179c-2-4.1-3.7-4.4-7.6-2.7
		C115.7,695.4,82.9,710,50,724.5c-15.2,6.7-30.2-1.1-33.4-17.3c-1.8-9.3,4.3-21.1,13.7-25.2c42.5-18.9,84.9-37.7,127.5-56.5
		c9.9-4.4,21.5,0.2,26.3,10.1c14.2,29.1,28.4,58.2,42.6,87.3c29.8,61,59.7,122,89.6,183c2.2,4.4,4.5,8.8,7,13.1
		c5.6,9.8,3.4,20.3-5.7,27.2c-25.8,19.4-51.5,38.9-77.2,58.4c-11.2,8.5-25.5,7.4-33.5-2.8c-8.2-10.4-5.8-25.5,5.3-34
		c19-14.4,38.1-28.9,57.1-43.3C270.5,923.7,271.5,922.8,272.9,921.7z"/>
</g>
</svg>
