<?xml version="1.0" encoding="utf-8"?>
<!-- Generator: Adobe Illustrator 26.0.1, SVG Export Plug-In . SVG Version: 6.00 Build 0)  -->
<svg version="1.1" id="Layer_1" xmlns="http://www.w3.org/2000/svg" xmlns:xlink="http://www.w3.org/1999/xlink" x="0px" y="0px"
	 viewBox="0 0 1080 1080" style="enable-background:new 0 0 1080 1080;" xml:space="preserve">
<g>
	<path d="M165.3,294c-1.2-5.3-2.3-10.7-3.7-15.9c-2.2-8.4-4.4-16.8-6.8-25.2c-2.9-10.5-6-21-8.9-31.6c-2-7.3-3.6-14.8-5.6-22.1
		c-2-7.3-4.4-14.6-6.2-21.9c-3-11.8-7.6-23.6-5.5-36.1c3.5-21.5,14.6-37.6,34.7-47.1c10.2-4.9,21.1-6.1,31.8-4.3
		c18.7,3.3,33.8,13.1,42.3,30.4c8.1,16.4,14.7,33.6,22,50.5c0.2,0.5,0.7,1,1.1,1.4c0.5,0,1-0.1,1.4-0.1c-0.2-5.2-0.3-10.5-0.8-15.7
		c-1.4-14.3-2.9-28.6-4.4-42.9c-0.1-1.3,0-2.6-0.3-3.8c-6-24.9,9.9-51.9,29.4-62.2c9.2-4.9,18.7-6.2,28.9-6.3
		c17.4-0.3,31.1,7,42.3,19.4c7.5,8.3,11.5,18.5,13.9,29.4c1.4,6.5,3.6,12.8,5.6,19.1c2,6.7,4.2,13.3,6.2,19.9
		c2.3,7.4,4.5,14.8,6.7,22.3c2.1,7.4,4.1,14.9,7.2,22.5c0.3-1.5,0.7-3,0.8-4.5c1.5-17.7,2.9-35.4,4.3-53.1c0.2-3,0.2-6.1,0.4-9.1
		c0.8-18.6,9.3-33.2,23.7-44.3c9.4-7.3,20.5-11.5,32.2-11.7c23.8-0.4,47.4,13.1,55.7,37.9c2.5,7.6,4.2,15.8,4.3,23.7
		c0.4,60.2,0.3,120.4,0.1,180.6c0,11.4,4.3,19.9,14.6,24.6c8,3.7,16,2,24-1.2c11.1-4.4,22.5-8.4,33.9-12.1c10.7-3.5,21.7-5,33-4.6
		c25.6,0.8,43.4,13.3,54.9,35.8c6.1,11.9,7.2,24.6,4.2,37.2c-3.8,16.1-13.4,28.7-28.6,35.7c-8.1,3.7-17.2,5.1-25.9,7.7
		c-15.7,4.6-31.7,8.3-45.6,17.3c-7.5,4.9-11.7,12.2-13.2,20.8c-2.9,15.8-7.9,30.9-14,45.8c-12.9,31.3-32.6,57.6-58.6,79.1
		c-14.2,11.7-29.7,21.4-46.7,28.5c-9.5,4-19,8.1-28.8,11.1c-8.8,2.7-17.9,4.5-27,5.7c-14.4,1.9-28.9,4.1-43.3,3.9
		c-14.9-0.1-30.1-1.6-44.7-4.7c-38.2-7.9-72.8-23.7-101.4-50.9c-16.7-15.9-30.2-34.2-38.1-56c-4.6-12.6-7.4-25.9-12.5-38.4
		c-5.8-14.2-12.5-28.1-20.1-41.4c-14-24.6-33.8-44.3-55.4-62.3c-12.1-10.2-23.8-20.9-35.8-31.2c-16.8-14.4-22.7-33.1-18.3-53.8
		c4-18.9,16.2-32.8,34.1-41.1c10.4-4.8,21.4-6,32.2-4.1c13.4,2.4,25.8,7.9,36.2,17.2c11.2,10,22.4,20.1,33.6,30.1
		c0.9,0.8,2,1.6,2.9,2.3C164.3,294.4,164.8,294.2,165.3,294z M482.3,202.2c0-7.5,0-15.1,0-22.6c-0.1-24,0-48-0.2-72.1
		c-0.1-9.9-5.9-16.2-14.4-19.5c-7.2-2.8-14.6-1.8-21.2,3.2c-8,6-9.7,14.6-10.2,23.7c-0.5,7.8-0.4,15.7-1,23.5
		c-1.1,15.1-2.8,30.2-3.8,45.4c-1.2,17.2-1.9,34.5-3,51.7c-0.3,4.1-1,8.3-2.4,12.2c-3,8.6-14.1,15.7-23,15.3
		c-9.8-0.5-20-8.3-22.6-17.4c-3.5-12-6.7-24.1-10.3-36.1c-3.6-12.1-7.7-24.1-11.3-36.2c-4.4-14.9-8.5-29.9-12.9-44.7
		c-3.8-12.8-7.7-25.5-11.7-38.2c-3.1-10-14-16.1-22.6-15.1c-11.5,1.4-21.4,10.1-21,23.2c0.3,8.3,1.6,16.5,2.3,24.8
		c1,11.3,1.8,22.6,2.8,33.9c0.8,8.4,1.8,16.8,2.7,25.2c1.3,11.7,2.8,23.5,4.1,35.2c1.5,13.3,3.1,26.6,4.1,40c0.4,4.6-0.4,9.4-1.4,14
		c-1.7,7.7-11,13.4-17.8,13.8c-8.9,0.5-17.8-4.6-21.1-12.1c-4.7-10.4-9.3-20.8-13.9-31.2c-5.2-11.9-10.2-23.8-15.5-35.7
		c-5.2-11.9-10.6-23.7-15.8-35.5c-4.5-10.3-9-20.6-13.2-31c-3.8-9.4-13.8-18.5-28.6-14.4c-9.3,2.6-17.1,12.3-15.4,24
		c1.4,9.7,4.5,19.1,7,28.6c1.9,7.2,3.9,14.4,5.8,21.6c2,7.3,3.9,14.7,5.8,22.1c2.1,7.7,4.2,15.3,6.3,22.9c1.9,7.2,3.6,14.5,5.5,21.7
		c2.1,7.6,4.4,15.2,6.4,22.9c2.3,8.6,4.7,17.1,6.6,25.8c1.6,7.2,4.1,14.1,1.1,21.9c-4.1,10.7-17.2,18-26.2,15.7
		c-5.1-1.3-10.3-3.9-14.2-7.3c-16.9-14.5-33.2-29.5-50-44.2c-8-7-14.9-15.7-25.4-19.3c-8-2.7-16.2-3.7-23.8,1.5
		c-5.6,3.9-9.3,9.5-10.4,16.1c-1.2,6.9,2.1,12.8,7.2,17.3c11.5,10.4,22.9,20.9,34.9,30.8c26.9,22.3,50.4,47.5,67.7,78.1
		c9.4,16.5,16.9,33.8,22.6,51.8c3.7,11.7,6.5,23.7,12.1,34.9c10.8,21.1,26.4,37.8,45.8,51.1c11.3,7.7,23.3,14.2,36.5,18.3
		c10.4,3.2,20.9,6.5,31.6,8.8c15.7,3.3,31.8,2.8,47.8,2.7c16.4-0.1,32.4-3.4,47.9-7.9c17.2-5,33.4-12.7,48.5-22.9
		c21.9-14.7,39.7-33.1,52.1-56.3c5.9-11,10.4-22.7,14.9-34.4c2.9-7.5,4.5-15.5,6.8-23.2c1.9-6.4,3-13.1,5.9-19
		c7.6-15.4,20.2-25.8,35.7-32.5c9.1-4,18.6-7,28.1-10c8-2.6,16.1-5,24.2-6.8c14.8-3.2,25.3-13.6,17.3-30.6
		c-5.1-10.8-17.3-15.8-26.8-14.7c-6.8,0.8-13.5,2.1-20.1,3.9c-8.6,2.4-17.3,5.1-25.5,8.6c-10.9,4.6-21.8,9.3-33.9,8.1
		c-6.5-0.7-13.2-2.3-19.3-4.6c-14.3-5.4-24.7-15.4-31.7-29c-5.3-10.4-6.9-21.7-6.9-33.3C482.4,259.8,482.3,231,482.3,202.2z"/>
	<path d="M819.9,582.8c3.5-8.1,6.9-16.2,10.6-24.2c5.5-11.9,10.3-24.3,17.3-35.3c8.4-13.1,21.6-20.3,37.3-22.4
		c25.2-3.5,44.4,5.8,57.7,27c8.5,13.5,11.5,28.4,7.1,44.3c-3.8,13.4-6.8,27-10.5,40.5c-2.8,10.4-6.1,20.7-8.9,31.1
		c-2.8,10.6-5.2,21.2-8,31.8c-2,7.5-4.4,14.9-6.5,22.4c-0.6,2.1-0.6,4.3-1.1,7.7c2-1.4,3.1-2,3.9-2.8c11.9-10.5,23.6-21.1,35.6-31.5
		c7.3-6.3,15.9-10.2,25.1-13.3c11-3.7,22.1-4.1,33-1.6c12.7,3,23,10.4,31.4,20.7c11.2,13.7,14.4,29.5,11.7,46.3
		c-1.8,11.6-7.9,21.4-16.8,29.3c-18.6,16.4-37.5,32.5-55.7,49.3c-19.1,17.5-34.6,37.9-45.9,61.4c-5.1,10.7-9.7,21.7-13.9,32.8
		c-3.1,8.3-5.1,17-7.8,25.4c-4.6,14.7-12.1,27.9-21.2,40.2c-15.1,20.5-33.9,37-56.3,49c-11.8,6.3-24.5,11.1-36.9,16.1
		c-13.2,5.3-27.1,7.5-41.1,9.8c-20.4,3.3-40.9,2.2-61.2,1.1c-13.3-0.7-26.4-5.1-39.4-8.4c-21.3-5.4-40.9-14.8-59.2-26.8
		c-30.7-20.1-54.6-46.6-70.2-79.9c-6.4-13.6-11.2-27.9-16.2-42c-2.2-6.2-3.2-12.9-4.6-19.4c-2.3-10.6-9.8-17-18.9-20.7
		c-12.2-5.1-25-8.8-37.7-12.7c-13.6-4.2-28.1-6-39-16.6c-13.3-13.1-19.7-28.6-17.2-47.4c3.1-23.2,15.9-39.2,36.9-48.6
		c10.1-4.5,20.9-6.6,32.2-4.3c7.1,1.5,14.6,1.6,21.7,3.4c8.7,2.2,17.3,5.1,25.8,8.2c6.1,2.2,11.8,5.4,17.9,7.8
		c9.2,3.7,24.2-3.2,28.2-13.4c1.8-4.4,2.6-9.5,2.6-14.3c0.2-59.9,0.1-119.8,0.1-179.7c0-24.2,10.3-42.8,31.7-54.5
		c12.9-7.1,26.7-8.3,41.1-4.5c17.1,4.6,29.5,15.1,37.2,30.6c3.4,6.9,5.1,15,6,22.8c1.9,17,2.8,34.1,4.1,51.1c0.3,3.5,0.4,7,0.7,10.5
		c0.1,1.7,0.4,3.3,1.6,5c1-3.1,2.1-6.1,3-9.2c4.3-14.9,8.5-29.9,12.8-44.8c4-13.7,7.5-27.5,12.2-41c5-14.2,14.7-24.9,28.1-31.9
		c8.7-4.6,18.2-7.4,28-6.7c22.9,1.7,40.1,12.6,50.3,33.5c5.5,11.2,7.5,22.9,5.2,35.7c-2,10.8-2,21.9-3,32.9
		c-0.8,8.4-1.7,16.8-2.5,25.3c-0.1,1.5,0,3,0,4.5C819,582.6,819.4,582.7,819.9,582.8z M597.9,612.5
		C597.9,612.5,597.9,612.5,597.9,612.5c0,30.1,0.1,60.2-0.1,90.3c0,11.4-2.3,22.5-8.2,32.5c-10.9,18.4-26.8,29.3-48.4,30.3
		c-7.3,0.3-14.9-0.9-22.1-2.6c-6.4-1.6-12.2-5.3-18.5-7.3c-10.7-3.4-21.5-6.9-32.5-9.1c-15.5-3.1-28.5-0.1-35.3,16.5
		c-5.2,12.6,1.3,22.6,12.2,26.1c11.6,3.8,23.5,6.6,35.2,9.8c14.8,4.1,28.9,10,41,19.6c10.6,8.4,18.4,18.8,21.5,32.3
		c1.6,7,3,14,5.1,20.8c4.8,15.8,10.5,31.1,18.7,45.6c14.7,25.9,34.8,46.3,60.5,61.2c23.6,13.7,49.1,21.5,76.4,24.6
		c20.6,2.4,40.7,0.8,60.9-2.5c12.1-2,23.8-5.3,35.2-9.8c23.9-9.3,44.5-23.4,61-43.1c9.1-10.8,16.6-22.6,21-36
		c2.7-8.1,4.6-16.5,7.6-24.5c4.2-11.4,8.9-22.7,13.7-33.8c7.8-17.9,18.6-33.9,30.5-49.4c13.5-17.5,29.9-31.9,46.5-46.3
		c11.7-10.2,23.4-20.4,35-30.7c4.4-3.9,7-9.3,6.6-14.8c-0.8-10.5-10-22.1-22.5-21.9c-9.7,0.1-17.8,4.4-24.9,10.7
		c-20.7,18.3-41.5,36.6-62,55.1c-6.2,5.6-12.9,7.4-21,7c-12.7-0.6-22.4-14.4-21.2-25.1c0.9-7.5,3.4-14.8,5.3-22.2
		c2-7.8,4.1-15.6,6.2-23.4c2-7.5,3.9-15.1,5.8-22.6c2.1-7.8,4.2-15.6,6.4-23.4c2-7.5,4.1-15,6.1-22.5c2-7.3,3.9-14.7,5.9-22
		c1.9-7.2,3.9-14.4,5.7-21.6c1.7-6.8,3.8-13.5,4.7-20.4c1.3-10.6-4.7-19.2-15.5-23.9c-7.1-3.1-17.8-0.2-23.6,7.2
		c-3.1,3.9-5.1,8.7-7.2,13.3c-6.3,14-12.3,28.2-18.4,42.2c-6,13.6-12,27.2-18,40.9c-6.6,14.9-12.8,30-19.8,44.8
		c-5.3,11.2-19.8,15.1-30.6,8.3c-6.9-4.3-11.9-14.7-9.7-24.2c0.9-3.7,1.3-7.6,1.6-11.4c1.1-11.6,1.9-23.2,3.1-34.8
		c2-18.7,4.5-37.4,6.4-56.1c1.3-11.9,1.9-23.9,3-35.8c0.2-2.4,1.1-4.7,1.3-7.1c0.7-8,2.6-16.2-1.6-23.9c-3.8-6.9-10.5-14.2-24-12.7
		c-5.7,0.6-15.3,6.8-17.4,15.2c-1.6,6.8-4.1,13.3-6.1,20c-2.8,9.4-5.4,18.9-8.2,28.3c-1.9,6.5-3.9,13.1-5.9,19.6
		c-2.8,9.2-5.8,18.4-8.5,27.7c-2.8,9.4-5.3,18.9-8.1,28.3c-2.8,9.4-6.1,18.6-8.7,28.1c-2.6,9.7-10.1,17.9-18.5,19.3
		c-11,1.9-21-1.9-25.8-12c-3-6.3-3.7-14-4.4-21.2c-1.4-16.1-1.9-32.2-3-48.3c-1.4-19.9-2.9-39.9-4.5-59.8
		c-0.5-5.9-1.1-11.8-2.3-17.5c-2.7-13-19-21.8-32.6-14c-8.3,4.8-11.5,12.1-11.4,21.5C598,551.9,597.9,582.2,597.9,612.5z"/>
</g>
</svg>
