<?xml version="1.0" encoding="utf-8"?>
<!-- Generator: Adobe Illustrator 26.0.1, SVG Export Plug-In . SVG Version: 6.00 Build 0)  -->
<svg version="1.1" id="Layer_1" xmlns="http://www.w3.org/2000/svg" xmlns:xlink="http://www.w3.org/1999/xlink" x="0px" y="0px"
	 viewBox="0 0 1080 1080" style="enable-background:new 0 0 1080 1080;" xml:space="preserve">
<g>
	<path d="M673.4,491.2c-0.6,24.5-13.5,41-32.7,52.8c-11,6.7-23.3,11.2-34.9,16.8c-6.7,3.2-13.5,6.3-19.8,10.2
		c-15.1,9.4-17,27.2-4.4,39.8c32.5,32.5,65,65,97.5,97.5c24.2,24.1,24.5,54.9,0.5,79.1c-21.3,21.5-42.8,43-64.3,64.4
		c-16.7,16.6-40.3,14.2-52.4-6c-9.1-15.2-16.5-31.4-25.1-46.8c-4.5-8-9.3-16-15.1-23.1c-19.1-23.7-42.8-28.5-69.5-14
		c-22.3,12.2-38.6,29.9-46.2,54.6c-5.7,18.5-1,34.6,12.2,48.5c12.2,12.8,27.7,20.7,43.2,28.7c10.7,5.5,21.6,10.8,32,16.9
		c22.3,13,25.4,36.4,7.3,54.7c-23,23.2-46.1,46.3-69.2,69.3c-20.6,20.4-53.5,20.2-74.7-0.8c-32.3-32-64.3-64.2-96.4-96.3
		c-70-70-139.9-140.1-210.1-209.9c-11.6-11.6-20.3-24.1-20.9-41c-0.5-15.1,4.4-28.3,15.1-39.1c23.5-23.7,47.1-47.3,70.8-70.7
		c16-15.9,39.8-13.4,51.3,6c10.1,17.1,18.4,35.2,28.4,52.3c5.1,8.8,11.3,17.3,18.3,24.7c14.1,14.8,31.7,19.6,51.1,12.7
		c28.9-10.4,48.9-30.4,58.5-59.7c6.2-18.8,0.8-35.3-12.8-49.3c-10-10.3-22.3-17.4-34.9-24c-14.1-7.4-28.6-14.3-42.2-22.5
		c-19.4-11.7-21.9-35.9-6-51.8c21.9-22,43.8-44,65.9-65.8c22.3-22.1,53.8-22.2,76-0.1c33,32.7,65.8,65.7,98.6,98.6
		c14,14,31.5,12.2,41.1-4.9c6-10.6,10.8-21.9,15.7-33.1c6.6-15.3,14.6-29.5,27.9-40.2c15.2-12.3,32.6-16.5,51-10.4
		c35.8,11.7,59.1,35.9,68.4,72.9C673.2,485.1,673.1,488.5,673.4,491.2z"/>
	<path d="M585.9,371.8c-34,2.1-61.2,17.8-77.9,50c-3.2,6.1-5.9,12.5-8.9,18.7c-6.7,13.5-22.5,16.4-33.3,5.8
		c-24.3-24.1-48.7-48.2-72.6-72.7c-21.1-21.7-20.6-53.5,0.8-74.9c39.8-39.9,79.8-79.8,119.7-119.7c44-44,88.1-88,132.1-132.1
		c22.1-22.1,54.9-22.2,77,0c32.7,32.7,65.5,65.5,98.2,98.3c13.8,13.8,11.7,31.2-5.4,40.6c-10.5,5.8-21.7,10.5-32.7,15.4
		c-12.6,5.5-24.6,11.8-34.5,21.6c-18.2,18-23.8,39.3-14.7,63.3c10.9,28.8,31.3,49.3,60.2,60.1c28.1,10.5,54.5,1.1,71.9-25.4
		c6.5-9.8,10.9-21,16.1-31.7c4.4-8.9,8.3-18.1,13.2-26.6c8.3-14.1,26.2-16.6,37.7-5.2c34.3,34,68.5,68,102.3,102.4
		c19.7,20.1,19,52.9-1.1,73.1C991.2,476,948,519,904.8,562.2c-41.4,41.4-82.7,82.8-124.2,124.1c-16.2,16.1-39.6,20.3-59.9,10.5
		c-5.5-2.7-10.7-6.5-15-10.8c-24-23.6-47.8-47.5-71.6-71.4c-11.3-11.4-8.5-27.2,5.9-34.2c6.7-3.2,13.5-6.3,20.1-9.7
		c36.1-18,58.7-64.4,42.2-109.7c-17.4-47.7-51.4-78.1-102-88.2C596.3,372,592,372.2,585.9,371.8z"/>
	<path d="M811.1,787.6c6.5,0,12.3,2,16.9,6.5c20.6,20.5,41.3,40.9,61.7,61.7c9.7,9.9,9.1,25.4-0.5,35c-9.7,9.7-25.1,10.3-35,0.6
		c-20.8-20.3-41.4-40.9-61.7-61.7c-7.5-7.7-8.5-17.3-4.4-27.2C791.9,793.1,800.8,787.6,811.1,787.6z"/>
	<path d="M292.2,272.3c-0.2,7.5-5.2,15.6-15.1,19.7c-10.2,4.3-19.9,2.6-28-5.3c-15.7-15.4-31.1-31-46.7-46.6
		c-4.5-4.5-9.1-9-13.5-13.6c-9.8-10.2-9.8-25.6-0.2-35.5c9.7-9.9,25.3-10.6,35.4-0.7c20.7,20.2,41,40.8,61.4,61.3
		C290.2,256.3,292.4,262.3,292.2,272.3z"/>
	<path d="M368.4,188.6c0,11.7,0,23.4,0,35.1c-0.1,14.7-11.1,26.1-25.2,26.2c-14,0.1-25.3-11.4-25.4-25.9c-0.1-23.7-0.1-47.5,0-71.2
		c0-14.6,11.3-25.9,25.4-25.9c13.9,0.1,25,11.3,25.1,25.6C368.5,164.5,368.4,176.6,368.4,188.6C368.4,188.6,368.4,188.6,368.4,188.6
		z"/>
	<path d="M186.6,370.2c-11.9,0-23.7,0-35.6,0c-14.6-0.1-26-11.3-26-25.3c0-14.1,11.4-25.2,26-25.2c23.6-0.1,47.1-0.1,70.7,0
		c15,0.1,26.5,11.4,26.3,25.6c-0.2,14.1-11.5,24.9-26.4,25C210,370.3,198.3,370.2,186.6,370.2z"/>
	<path d="M891.3,711.5c11.9,0,23.7,0,35.6,0c14.7,0.1,26,11.1,26.1,25.1c0.1,14.1-11.3,25.3-25.9,25.4c-23.4,0.1-46.8,0.1-70.2,0
		c-15.5,0-27.1-11-26.9-25.4c0.1-14.3,11.5-25,26.7-25.1c0.4,0,0.7,0,1.1,0C868.9,711.5,880.1,711.5,891.3,711.5z"/>
	<path d="M760.3,893.2c0,11.9,0,23.7,0,35.6c-0.1,14.6-11.3,26-25.3,26c-14.1,0-25.2-11.4-25.3-26c-0.1-23.6-0.1-47.1,0-70.7
		c0-14.7,11-26.1,25-26.3c14.2-0.2,25.5,11.5,25.6,26.4c0,0.2,0,0.4,0,0.5C760.3,870.2,760.3,881.7,760.3,893.2z"/>
</g>
</svg>
