<?xml version="1.0" encoding="utf-8"?>
<!-- Generator: Adobe Illustrator 26.0.1, SVG Export Plug-In . SVG Version: 6.00 Build 0)  -->
<svg version="1.1" id="Layer_1" xmlns="http://www.w3.org/2000/svg" xmlns:xlink="http://www.w3.org/1999/xlink" x="0px" y="0px"
	 viewBox="0 0 1080 1080" style="enable-background:new 0 0 1080 1080;" xml:space="preserve">
<g>
	<path d="M839.9,283.4c-19-15.7-38-31.3-56.9-47c-12-10-15-23.3-6.4-31.8c10.5-10.4,21-7.3,31.5,1.3c32.8,27.1,66.1,53.6,98.9,80.8
		c17.2,14.3,16.7,24.7-0.8,39.2c-32.4,26.7-64.9,53.4-97.4,80c-13.1,10.7-24.4,10.8-32.7,0.8c-7.8-9.4-5.3-21,7.6-31.8
		c18.4-15.4,37.1-30.4,56.9-46.7c-163.8-24.4-268.4,98-268.3,210.8c0.1,142.9-112.2,253.8-254.9,254c-15.5,0-30.9,0-51.6,0
		c22.1,18.1,40.3,33.3,58.8,48.3c14,11.3,17.4,22.5,9.6,32.7c-7.7,10.3-20.1,9.8-33.8-1.3c-32.6-26.5-65.3-53-97.7-79.6
		c-16.3-13.4-16.6-24.7-0.2-38.3c32.7-27.2,65.7-54.1,98.8-80.8c13.6-11,24.6-10.9,32.5-1c7.9,10,5.5,20.4-7.8,31.8
		c-18.1,15.3-36.4,30.3-54.5,45.5c-0.2,0.2,0,0.9-0.1,1.4c154.5,22.8,260.6-86.4,261-206.9c0.4-131.6,98.4-241.3,228.6-256.7
		c25.4-3,51.5-0.4,77.3-0.4C838.8,286.4,839.3,284.9,839.9,283.4z"/>
	<path d="M809.5,822.5c14.3-17.4,28.5-34.7,42.8-52.1c2-2.5,4-5,6.1-7.5c8.3-9.6,18.4-12,28.5-4.3c10.6,7.9,10.2,19.2,2.7,28.6
		c-28.9,36.2-58.1,72.2-88,107.6c-8.6,10.2-20.8,10.4-29.6-0.1c-30.1-35.9-59.7-72.3-89-108.8c-7.4-9.3-6.3-19.8,3.1-27.2
		c9.3-7.2,19.6-6.2,27.4,3c14.3,16.8,28.1,34.1,42.1,51.1c2.6,3.1,5.5,6,8.8,9.8c15.7-115.7-36.2-208-134.3-248.7
		c-7-2.9-15.2-7.8-18.1-14c-2.4-5.2,0-16.7,4.3-19.9c5.7-4.2,16.5-6.1,23.1-3.6c83.9,31.2,136.8,91.1,159.3,177.3
		c5.1,19.6,5.7,40.4,7.1,60.8c1.1,15.5,0.2,31.1,0.2,46.6C807.2,821.5,808.4,822,809.5,822.5z"/>
	<path d="M344.2,255.1c-5.5,65.5,1.3,124.3,39.4,176c23.9,32.4,54,56.8,91,72.7c16.5,7.1,22.1,16.8,16.9,29.2
		c-4.8,11.3-15.6,13.8-31.9,7.2c-91.9-37-155.6-130.7-156.1-229.5c-0.1-17.2,0-34.4,0-56.9c-14.3,17.3-25.6,31-36.9,44.7
		c-4.5,5.4-9,10.8-13.3,16.3c-8.5,10.8-18.7,14.9-30.8,6.8c-9.7-6.5-9.2-20.6,0.7-32.8c20.4-25.1,40.9-50,61.4-75
		c7.2-8.7,14.1-17.7,21.6-26.2c10.7-12.2,23.1-12.9,33.1-1c29,34.7,57.5,69.8,86,105c8.2,10.2,8.9,21.8-1.8,30.1
		c-10.6,8.2-21.3,4.5-29.6-5.8C378,296.2,362,276.8,344.2,255.1z"/>
	<path d="M516.8,99.5c-15.3,18.7-30.4,37.5-46,56c-11.2,13.3-21.9,15.6-31.8,7.6c-9.3-7.6-9.1-20.1,1.3-32.9
		c26.8-33,53.7-66,80.9-98.7c12.8-15.4,24.5-15.6,37.2-0.3c27.6,33.1,54.6,66.6,82,99.9c8.6,10.4,11.3,21.2,0.7,31.5
		c-9.2,8.9-20.6,6.2-31.7-6.8c-15.6-18.4-31-37.1-46.6-55.6c-0.2-0.2-1,0.1-3.1,0.3c0,40,0,80.1,0,120.3c0,24.2-6,34-20.4,33.4
		c-13.8-0.5-19.1-9.6-19.1-33.1c0-40.2,0-80.5,0-120.7C519.1,100.2,518,99.8,516.8,99.5z"/>
	<path d="M983.7,519.4c-21.6-17.7-40.4-32.8-58.8-48.3c-13.5-11.4-16-21.9-8.2-31.7c7.4-9.4,20.3-9.4,32.8,0.8
		c32.6,26.5,65.2,53.1,97.5,79.9c17.3,14.4,17.6,25.3,0.7,39.3c-32.7,27.2-65.8,54-98.7,81c-10.3,8.4-21.1,11.7-31.6,1
		c-9.1-9.3-6.7-20.5,6.4-31.7c18.4-15.7,37.2-31,55.7-46.5c0.3-0.2,0.1-1,0.2-3.5c-32.6,0-65.2,0-97.8,0c-11.9,0-23.7,0.2-35.6-0.1
		c-12.9-0.3-20.8-7.2-20.6-19.9c0.2-12.7,8.3-19.3,21.2-19.3c42.1,0,84.1,0,126.2,0C975.4,520.3,977.5,519.9,983.7,519.4z"/>
	<path d="M563,980.6c15-18.2,29.8-36.6,44.9-54.7c12.2-14.6,22.6-17.4,32.8-9.4c9.8,7.7,9.2,20.6-1.8,34.1
		c-25.5,31.3-51,62.7-76.7,93.8c-17,20.6-27,20.8-43.6,0.7c-26.5-31.9-52.5-64.2-78.8-96.3c-8.5-10.4-11.5-21.2-1-31.6
		c9.1-9,20.7-6.5,31.7,6.5c15.8,18.7,31.2,37.8,49.9,60.7c0-34.2,0-63.6,0-92.9c0-13.5-0.1-27,0-40.4c0.1-16.7,7.4-25.9,20-25.7
		c12.6,0.2,19.2,9.2,19.2,26.4c0.1,37.2,0,74.4,0,111.6c0,5.3,0,10.5,0,15.8C560.8,979.8,561.9,980.2,563,980.6z"/>
	<path d="M100.3,520.3c38.6,0,77.2,0,115.8,0c5.4,0,10.8,0.1,16.2,0c12.8-0.1,20.6,6,21.9,18.8c1.1,11.7-7.8,20.2-21.8,20.4
		c-36.1,0.3-72.2,0.1-108.3,0.2c-7.9,0-15.8,0-28.7,0c20.5,16.8,37.3,30.6,54.1,44.3c18.8,15.3,22.7,25.9,13.5,37.1
		c-8.7,10.4-21.1,8.2-39.1-6.6C93,609,62,584,31.3,558.5c-15.4-12.8-15.4-24.4-0.1-37.2c33.2-27.5,66.6-54.6,100-81.9
		c10.4-8.5,21.2-11.2,31.5-0.5c8.5,8.9,6.3,20.2-6,30.6c-18.8,16-38.1,31.5-57.2,47.2C99.8,517.9,100.1,519.1,100.3,520.3z"/>
	<path d="M559.7,317.8c-0.1,15.3-7.3,24-19.8,24c-12.8,0-20-9.3-19.7-25.7c0.3-15.2,7.6-23.4,20.5-22.9
		C553.3,293.6,559.9,302.1,559.7,317.8z"/>
	<path d="M318.1,559.7c-16.4,0.2-25.2-6.9-25-20.2c0.2-12.7,8.4-19.2,24.2-19.2c15.2,0,24.3,7.1,24.5,19.3
		C342.2,551.9,333.1,559.5,318.1,559.7z"/>
	<path d="M763.4,559.7c-16.2,0.2-25.6-7.4-25.3-20.2c0.3-12.1,9.3-19.2,24.7-19.2c15.9,0,23.9,6.4,24.1,19.3
		C787,552.4,778.7,559.5,763.4,559.7z"/>
	<path d="M559.6,763c-0.1,15.7-6.8,23.8-19.7,23.7c-12.8-0.1-19.6-8.3-19.7-23.8c-0.1-16,7.8-25.5,20.5-24.9
		C553,738.5,559.8,747.5,559.6,763z"/>
</g>
</svg>
